<svg id="mainpage_btn_invaild" xmlns="http://www.w3.org/2000/svg" xmlns:xlink="http://www.w3.org/1999/xlink" width="150" height="108" viewBox="0 0 150 108">
  <defs>
    <clipPath id="clip-path">
      <rect id="Rectangle_5687" data-name="Rectangle 5687" width="57.995" height="58.026" transform="translate(0 0)" fill="none"/>
    </clipPath>
  </defs>
  <rect id="mainpage_btn_disable" width="150" height="108" rx="1.5" fill="none"/>
  <g id="Group_5397" data-name="Group 5397" transform="translate(-439.244 -1967.595)">
    <rect id="Rectangle_5372" data-name="Rectangle 5372" width="70" height="70" transform="translate(479.244 1986.595)" fill="none"/>
    <g id="Group_8250" data-name="Group 8250" transform="translate(486.244 1992.595)">
      <g id="Group_8249" data-name="Group 8249" clip-path="url(#clip-path)">
        <path id="Path_6900" data-name="Path 6900" d="M57.481,26.8l-.75.012.755-.015a18.075,18.075,0,0,0-.192-2.3,9.744,9.744,0,0,0-.253-1.146c-.05-.191-.1-.381-.143-.572-.035-.161-.062-.323-.088-.486-.036-.214-.071-.428-.125-.662-.083-.33-.183-.656-.292-.959l-.131-.387c-.159-.472-.318-.943-.5-1.4-.118-.307-.259-.607-.4-.905l-.194-.416c-.066-.148-.129-.3-.192-.447-.141-.334-.283-.667-.452-.986-.388-.733-.844-1.582-1.346-2.379a23.486,23.486,0,0,0-1.525-2.162A31.421,31.421,0,0,0,49.332,8.91a38.275,38.275,0,0,0-3.006-2.654,25.557,25.557,0,0,0-2.377-1.618c-.638-.4-1.35-.8-2.186-1.242a9.054,9.054,0,0,0-.88-.376c-.14-.054-.28-.107-.419-.166-.045-.019-.088-.044-.132-.068a3.45,3.45,0,0,0-.358-.172c-.563-.22-1.128-.437-1.694-.644-.394-.144-.79-.283-1.195-.4-.195-.055-.393-.1-.592-.138-.135-.028-.27-.055-.4-.089-.294-.08-.586-.168-.876-.255L34.921,1,34.787.928,34.063.842C33.733.806,33.4.769,33.014.711a49.966,49.966,0,0,0-6.7-.166A7.022,7.022,0,0,0,24.312.78a3.215,3.215,0,0,1-.476.079c-.135.016-.269.033-.418.059a8.972,8.972,0,0,0-1.03.28l-.416.129a5.751,5.751,0,0,0-1.533.419c-.189.065-.381.124-.572.184-.336.105-.671.211-1,.335-.308.116-.607.256-.906.4L17.214,3c-.22.1-.441.192-.656.295l-.242.114c-.423.2-.847.4-1.252.629-.558.315-1.128.667-1.69,1.045-.67.446-1.265.869-1.8,1.278A22.18,22.18,0,0,0,9.584,8c-.875.85-1.668,1.736-2.329,2.49A27.165,27.165,0,0,0,5.516,12.7c-.392.558-.733,1.141-1.063,1.7l-.285.482c-.256.431-.506.868-.729,1.315-.147.294-.276.593-.4.892l-.267.586a3.89,3.89,0,0,0-.183.386c-.22.562-.435,1.126-.646,1.708s-.407,1.119-.582,1.685a5.542,5.542,0,0,0-.17.758c-.017.1-.034.2-.054.3-.038.17-.082.337-.127.505l-.1.248-.085.782c-.039.37-.077.739-.118,1.049a4.36,4.36,0,0,1-.149.56L.5,25.808v6.445l.062.168a4.169,4.169,0,0,1,.13.422c.028.221.047.443.066.665.034.378.068.755.146,1.179A11.971,11.971,0,0,0,1.3,36.023a5.476,5.476,0,0,0,.42,1.556l.177.554c.105.341.212.682.338,1.024.114.3.25.595.388.887l.349.779c.1.227.2.455.3.677.245.506.491,1.013.768,1.505.316.562.656,1.108,1.013,1.67.287.448.584.912.931,1.361.531.68,1.134,1.452,1.764,2.139a20.278,20.278,0,0,0,2.755,2.633c.246.185.482.384.718.582.258.217.517.434.786.637.418.315.854.607,1.29.9l.284.19c.355.239.713.476,1.087.688.293.166.6.319.9.471l.767.4c.306.165.609.328.926.466.293.127.6.234.908.34.155.052.31.106.466.164.12.044.235.1.349.151l.186.084a11.29,11.29,0,0,0,2.071.655c.166.037.327.093.488.146s.3.1.441.139a3.106,3.106,0,0,0,.408.084c.051.009.1.016.174.033.167.036.338.066.508.094a4.958,4.958,0,0,1,.615.128,4.226,4.226,0,0,0,1.083.151c.141.007.27.012.385.027l.178.19h6.721l.176-.069a3.226,3.226,0,0,1,.356-.116l.321-.036c.279-.03.556-.061.838-.112l.225-.041c.435-.078.872-.157,1.235-.251a9.007,9.007,0,0,0,1.351-.356,7.562,7.562,0,0,1,.972-.248l.1-.025A7.411,7.411,0,0,0,38.576,56l.314-.122c.436-.169.872-.339,1.3-.523.308-.131.6-.279.9-.428l.693-.336a10.882,10.882,0,0,0,1-.509c.971-.585,1.846-1.14,2.665-1.688a16.8,16.8,0,0,0,1.815-1.364c.846-.751,1.84-1.653,2.808-2.664a24.692,24.692,0,0,0,1.827-2.24c.562-.746,1.1-1.517,1.605-2.295a9.675,9.675,0,0,0,.562-1.04c.073-.15.145-.3.223-.448s.172-.322.26-.483c.186-.341.372-.683.532-1.031a10.39,10.39,0,0,0,.38-.98c.049-.141.1-.281.147-.413.044-.115.1-.225.147-.336l.083-.182a11.551,11.551,0,0,0,.68-2.139c.035-.153.087-.3.137-.453.055-.166.11-.332.152-.49a2.658,2.658,0,0,0,.073-.428c0-.036,0-.072.008-.091a6.191,6.191,0,0,0,.261-1.364,9.073,9.073,0,0,1,.19-1.126c.043-.2.085-.4.13-.656a2.22,2.22,0,0,0,.019-.4l0-1.468c0-1.17.008-2.34-.011-3.509" fill="#e4002b"/>
        <path id="Path_6901" data-name="Path 6901" d="M32.337,58.026H25.305l-.2-.208-.173-.008a4.71,4.71,0,0,1-1.207-.173,4.569,4.569,0,0,0-.552-.113c-.178-.03-.357-.061-.531-.1L22.5,57.4a3.815,3.815,0,0,1-.466-.1c-.149-.042-.306-.093-.462-.145s-.291-.1-.44-.133a11.739,11.739,0,0,1-2.157-.684l-.2-.089c-.1-.048-.206-.1-.314-.136-.154-.057-.305-.109-.455-.161-.321-.11-.64-.221-.946-.354-.33-.144-.646-.313-.965-.486l-.753-.392c-.309-.155-.618-.312-.918-.482-.385-.218-.754-.462-1.12-.708l-.283-.189c-.443-.3-.887-.595-1.312-.915-.277-.21-.542-.432-.807-.654-.23-.193-.458-.386-.7-.565A20.78,20.78,0,0,1,7.373,48.5c-.634-.69-1.243-1.47-1.78-2.159-.361-.466-.663-.938-.954-1.394-.366-.575-.711-1.129-1.032-1.7-.282-.5-.533-1.018-.782-1.534-.111-.228-.212-.463-.312-.7l-.343-.763c-.143-.3-.284-.609-.4-.923-.131-.357-.24-.707-.35-1.058l-.153-.482a6.321,6.321,0,0,1-.452-1.643A13.194,13.194,0,0,1,.418,34.8a12.338,12.338,0,0,1-.156-1.25c-.017-.194-.034-.39-.058-.584a2.834,2.834,0,0,0-.11-.372L0,32.343V25.725l.08-.235A3.715,3.715,0,0,0,.213,25c.035-.276.073-.64.111-1.006l.1-.879.1-.219c.044-.164.087-.327.125-.493.017-.081.033-.176.049-.271A5.915,5.915,0,0,1,.879,21.3c.177-.571.38-1.13.589-1.7s.429-1.154.651-1.72a4.317,4.317,0,0,1,.2-.436l.25-.55c.133-.308.266-.616.417-.919.229-.457.485-.9.748-1.346l.284-.483c.335-.572.681-1.162,1.084-1.737A27.332,27.332,0,0,1,6.88,10.159C7.547,9.4,8.349,8.5,9.235,7.639a22.534,22.534,0,0,1,2.048-1.68q.8-.612,1.814-1.29c.571-.385,1.152-.744,1.722-1.065.415-.235.85-.441,1.284-.645l.241-.114c.22-.1.445-.2.671-.3l.735-.333c.311-.147.622-.293.942-.414.336-.127.681-.236,1.026-.344.169-.053.338-.106.507-.162A6.478,6.478,0,0,1,21.867.837l.369-.115a9.329,9.329,0,0,1,1.089-.3c.165-.028.307-.046.451-.064A2.643,2.643,0,0,0,24.181.3,7.651,7.651,0,0,1,26.33.045a50.612,50.612,0,0,1,6.73.168c.413.061.735.1,1.058.133l.829.1.171.094.245.073c.287.086.575.172.865.251.115.031.24.056.366.082.211.043.421.088.628.147.417.12.826.262,1.23.411.569.208,1.138.426,1.7.648a3.7,3.7,0,0,1,.412.2l.093.048c.132.056.267.107.4.159a9.137,9.137,0,0,1,.929.4c.852.446,1.575.857,2.223,1.264A25.627,25.627,0,0,1,46.63,5.859a38.478,38.478,0,0,1,3.052,2.694,32.073,32.073,0,0,1,2.371,2.73,24.221,24.221,0,0,1,1.554,2.2c.51.81.971,1.669,1.363,2.41.176.332.324.678.471,1.026.062.146.123.292.188.437l.189.407c.146.309.291.619.414.938.18.463.34.938.5,1.413l.134.4a10.411,10.411,0,0,1,.3,1c.058.252.1.476.133.7.026.154.05.309.084.461.04.183.089.368.138.552a10.487,10.487,0,0,1,.264,1.2,18.606,18.606,0,0,1,.2,2.355l-1.254.026,1.249-.02c.019,1.172.015,2.346.011,3.519l0,1.466a2.525,2.525,0,0,1-.024.464c-.049.28-.092.487-.135.694a8.562,8.562,0,0,0-.181,1.062,6.736,6.736,0,0,1-.282,1.473,2.174,2.174,0,0,1-.077.5c-.043.164-.1.341-.16.516-.045.135-.092.269-.124.407a11.957,11.957,0,0,1-.707,2.224l-.089.2c-.047.1-.094.2-.133.3-.048.127-.1.263-.143.4a10.742,10.742,0,0,1-.4,1.027c-.164.357-.355.71-.548,1.062l-.254.473c-.075.143-.145.288-.216.433a10.157,10.157,0,0,1-.591,1.094c-.513.792-1.06,1.573-1.627,2.325a25.257,25.257,0,0,1-1.857,2.277c-.99,1.033-1.992,1.943-2.845,2.7a17.063,17.063,0,0,1-1.875,1.409c-.82.549-1.7,1.108-2.679,1.7A11.526,11.526,0,0,1,42,55.046l-.683.331c-.306.153-.611.305-.928.44-.433.186-.875.358-1.317.529l-.312.121a7.75,7.75,0,0,1-.795.285l-.155.037a7.077,7.077,0,0,0-.909.232,9.252,9.252,0,0,1-1.366.363c-.425.1-.856.184-1.286.262l-.224.04c-.295.053-.583.086-.873.117l-.254.029a2.063,2.063,0,0,0-.3.091Zm-6.946-.17.006,0-.006,0m-.619-.4.006.008Zm1.616-2.427H31.8a5.357,5.357,0,0,1,.56-.147l.47-.058c.221-.025.441-.047.662-.087l.227-.041c.378-.068.758-.135,1.131-.23l.1-.021a6.429,6.429,0,0,0,.989-.262,10.182,10.182,0,0,1,1.237-.323q.232-.073.456-.168l.357-.14c.409-.158.819-.317,1.222-.49.262-.112.513-.239.764-.365l.76-.367a8.187,8.187,0,0,0,.766-.386c.932-.562,1.775-1.1,2.573-1.631a14.334,14.334,0,0,0,1.551-1.161c.791-.7,1.738-1.563,2.632-2.495a22.562,22.562,0,0,0,1.631-2.006c.543-.721,1.049-1.443,1.521-2.173a7.477,7.477,0,0,0,.414-.777c.083-.172.166-.342.254-.51s.186-.349.281-.522c.159-.292.319-.583.458-.884.115-.248.2-.5.288-.752.055-.16.111-.32.17-.478.067-.175.142-.339.217-.5l.065-.14a9.08,9.08,0,0,0,.524-1.665,7.35,7.35,0,0,1,.208-.709c.038-.116.078-.232.11-.35a2.842,2.842,0,0,1,.1-.6,3.73,3.73,0,0,0,.158-.822,11.014,11.014,0,0,1,.236-1.447c.038-.18.076-.36.109-.541l-.01-1.476c0-1.153.008-2.308-.01-3.46h.005a15.753,15.753,0,0,0-.167-1.977,7.584,7.584,0,0,0-.2-.868c-.059-.224-.118-.448-.168-.674-.044-.2-.079-.41-.113-.615-.027-.164-.053-.329-.09-.491-.055-.218-.13-.464-.218-.706l-.146-.432c-.146-.432-.29-.863-.455-1.287-.1-.254-.214-.5-.329-.741-.072-.152-.144-.306-.213-.46s-.145-.331-.215-.5c-.112-.267-.223-.533-.358-.788-.384-.725-.8-1.493-1.254-2.221a21.562,21.562,0,0,0-1.373-1.946,29.239,29.239,0,0,0-2.137-2.464,35.314,35.314,0,0,0-2.77-2.445,23.191,23.191,0,0,0-2.139-1.452c-.608-.381-1.265-.754-2.035-1.158a6.537,6.537,0,0,0-.624-.26c-.166-.064-.331-.128-.495-.2-.116-.049-.231-.108-.345-.17l-.094-.048c-.536-.21-1.083-.421-1.632-.622-.34-.124-.679-.244-1.024-.342-.131-.038-.27-.065-.409-.094-.181-.037-.362-.075-.54-.123-.324-.088-.635-.181-.945-.274L34.1,3.363l-.311-.036c-.364-.041-.728-.082-1.09-.138a49.032,49.032,0,0,0-6.337-.146,5.106,5.106,0,0,0-1.4.153,5.7,5.7,0,0,1-.818.144c-.093.012-.186.022-.278.039a6.221,6.221,0,0,0-.712.2c-.123.039-.246.078-.37.115a1.908,1.908,0,0,1-.378.1,3.651,3.651,0,0,0-1.04.276l-.119.046c-.208.071-.417.137-.627.2-.289.09-.578.18-.861.288-.247.092-.483.206-.721.318l-.818.372c-.2.085-.39.169-.582.261l-.252.119c-.367.172-.734.343-1.086.542-.5.284-1.017.6-1.529.946-.628.418-1.178.81-1.687,1.2A20.089,20.089,0,0,0,11.3,9.818c-.779.759-1.531,1.6-2.16,2.317a24.886,24.886,0,0,0-1.577,2c-.329.47-.629.982-.947,1.525l-.3.5c-.225.378-.445.76-.64,1.151-.126.253-.236.509-.347.766l-.207.473c-.045.1-.094.194-.143.287-.023.044-.048.087-.067.134-.212.542-.42,1.086-.619,1.634s-.386,1.061-.552,1.6a2.944,2.944,0,0,0-.09.428c-.023.137-.047.274-.076.409-.048.217-.1.417-.154.618l-.075.285-.038.359c-.042.4-.083.791-.137,1.185-.053.275-.108.5-.171.718v5.619a6.009,6.009,0,0,1,.153.586l.019.112c.033.255.056.511.078.767.027.3.051.606.105.9a10.234,10.234,0,0,0,.3,1.005l.07.152.045.286a3.368,3.368,0,0,0,.269,1.021l.054.139c.064.2.126.393.187.589.094.3.188.606.3.9.085.227.2.46.306.693.07.149.14.3.207.448l.179.411c.082.192.164.384.255.572.222.462.445.923.7,1.368.294.52.611,1.03.934,1.536.279.437.532.832.807,1.188.523.67,1.068,1.369,1.651,2a17.756,17.756,0,0,0,2.425,2.326c.253.19.524.417.8.644.225.189.45.379.684.556.379.285.777.551,1.174.817l.287.193c.3.2.607.406.926.587.257.146.524.279.79.414l.83.432c.243.132.483.263.735.373.233.1.477.184.721.268.176.06.352.12.526.185s.348.143.521.222l.145.066a8.72,8.72,0,0,0,1.6.5c.265.06.5.138.744.217.112.037.223.075.335.107l.115.019c.116.019.232.039.346.066.1.021.232.043.364.066a7.345,7.345,0,0,1,.925.2,2.441,2.441,0,0,0,.466.046A4.439,4.439,0,0,1,26.314,55l.074.025M3.238,24.185l-.013.025.013-.025M.579,22.8l-.018.036Z"/>
        <path id="Path_6902" data-name="Path 6902" d="M28.993,6.863a2.7,2.7,0,0,1,1.81.262A4.9,4.9,0,0,1,32.98,8.837a10.931,10.931,0,0,1,.812,1.65.459.459,0,0,1,.035.2c0,.939.031,1.88-.008,2.818-.025.563-.177,1.12-.235,1.683-.041.407-.013.819-.033,1.228a24.854,24.854,0,0,1-.16,2.6c-.154.989-.183,1.981-.286,2.968-.084.818-.077,1.639-.172,2.448-.116.976-.127,1.96-.248,2.928-.1.83-.044,1.668-.178,2.477-.163.983-.066,1.98-.25,2.946-.139.728-.049,1.465-.178,2.177a2.691,2.691,0,0,1-1.546,2.078,3.5,3.5,0,0,1-1.421.4A3.171,3.171,0,0,1,26.4,36.155a2.521,2.521,0,0,1-.52-1.574,16.412,16.412,0,0,0-.153-1.7c-.038-.454-.062-.91-.087-1.366-.063-1.094-.038-2.2-.2-3.279-.157-1-.155-2.006-.25-3.006-.073-.776-.08-1.558-.148-2.335-.071-.821-.179-1.639-.268-2.459-.035-.324-.066-.647-.084-.972-.039-.679-.058-1.36-.1-2.04-.071-.994-.1-2-.257-2.981a14.391,14.391,0,0,1-.159-2.328c-.018-.47-.014-.941.014-1.41a3.646,3.646,0,0,1,.291-.936,4.245,4.245,0,0,1,1.25-1.734,5.987,5.987,0,0,1,1.5-.924,2.753,2.753,0,0,1,1.771-.248"/>
        <path id="Path_6903" data-name="Path 6903" d="M25.878,44.4a3.061,3.061,0,1,1,.993,2.316,3.012,3.012,0,0,1-1-2.312"/>
      </g>
    </g>
  </g>
</svg>
